<svg id="Capa_1" data-name="Capa 1" xmlns="http://www.w3.org/2000/svg" viewBox="0 0 137.99 261.38"><path d="M218.45,134.11l-3.31,26.57a8.87,8.87,0,0,1-8.78,7.79H163.31V279.59q-6.81.62-13.79.62a153.31,153.31,0,0,1-30.36-3V168.47H86a5.55,5.55,0,0,1-5.52-5.54V129.67A5.55,5.55,0,0,1,86,124.13h33.12V74.25a55.3,55.3,0,0,1,55.19-55.42H213a5.54,5.54,0,0,1,5.52,5.54V57.62A5.54,5.54,0,0,1,213,63.16h-27.6a22.13,22.13,0,0,0-22.07,22.17v38.8h46.36A8.87,8.87,0,0,1,218.45,134.11Z" transform="translate(-80.52 -18.83)"/></svg>