<svg id="Capa_1" data-name="Capa 1" xmlns="http://www.w3.org/2000/svg" viewBox="0 0 1054.16 216.85"><defs><style>.cls-1{fill:#343c71;}.cls-2{fill:#0d55c1;}</style></defs><path class="cls-1" d="M334,673.25H317.35v9H329V687H317.35v9H334v4.73H312.25V668.52H334Z" transform="translate(-72.92 -492)"/><path class="cls-1" d="M364.6,691.43a8.8,8.8,0,0,1-3.55,7.24,14.54,14.54,0,0,1-9.29,2.8,16.1,16.1,0,0,1-8.92-2.37,9.64,9.64,0,0,1-4.49-6.11l4.86-1.8a7,7,0,0,0,3.11,4,10.65,10.65,0,0,0,5.83,1.51,9.15,9.15,0,0,0,5.32-1.39,4.2,4.2,0,0,0,2-3.58,2.92,2.92,0,0,0-.46-1.65,4.62,4.62,0,0,0-1.09-1.19A7.18,7.18,0,0,0,356,688c-.87-.28-1.66-.49-2.36-.64l-3-.59a29.3,29.3,0,0,1-3.87-1,17.26,17.26,0,0,1-3.38-1.61,7.51,7.51,0,0,1-2.65-2.75,8,8,0,0,1-.94-4,8.6,8.6,0,0,1,3.33-7,13.35,13.35,0,0,1,8.62-2.67,14.35,14.35,0,0,1,8.31,2.3,9.74,9.74,0,0,1,4.19,6.17l-4.82,1.8a6.69,6.69,0,0,0-2.65-4,8.59,8.59,0,0,0-5.22-1.52,8.41,8.41,0,0,0-4.76,1.26,3.82,3.82,0,0,0-1.9,3.33,3.41,3.41,0,0,0,1.92,3.15,21.33,21.33,0,0,0,5.81,1.87c1.17.25,2.1.47,2.79.64s1.59.44,2.68.78a10.58,10.58,0,0,1,2.57,1.16,17.1,17.1,0,0,1,2,1.57,5.24,5.24,0,0,1,1.48,2.22A8.62,8.62,0,0,1,364.6,691.43Z" transform="translate(-72.92 -492)"/><path class="cls-1" d="M392.45,668.52v4.73h-9.92v27.46h-5.1V673.25h-9.92v-4.73Z" transform="translate(-72.92 -492)"/><path class="cls-1" d="M418.59,700.71l-7.68-13h-7v13h-5.11V668.52h14.29a11.45,11.45,0,0,1,7.8,2.72,8.68,8.68,0,0,1,3.14,6.84,8.93,8.93,0,0,1-2,5.75,9.94,9.94,0,0,1-5.42,3.44l8,13.44Zm-14.72-27.46V683h9.18a6.27,6.27,0,0,0,4.26-1.38,4.58,4.58,0,0,0,0-7,6.26,6.26,0,0,0-4.23-1.38Z" transform="translate(-72.92 -492)"/><path class="cls-1" d="M455.83,700.71l-3.31-7.81H436.63l-3.26,7.81h-5.54l13.75-32.19h5.88l13.91,32.19Zm-17.21-12.54h11.91l-6-14.21Z" transform="translate(-72.92 -492)"/><path class="cls-1" d="M485.33,668.52v4.73h-9.92v27.46h-5.1V673.25h-9.92v-4.73Z" transform="translate(-72.92 -492)"/><path class="cls-1" d="M513.42,673.25H496.75v9h11.66V687H496.75v9h16.67v4.73H491.65V668.52h21.77Z" transform="translate(-72.92 -492)"/><path class="cls-1" d="M532.86,683.71h16.48v2.18a14.84,14.84,0,0,1-4.54,11.22,15.8,15.8,0,0,1-11.4,4.36,16.87,16.87,0,0,1-12.32-4.9,16.71,16.71,0,0,1,.07-23.89,17.5,17.5,0,0,1,26.78,2.8l-4.32,2.46a11.46,11.46,0,0,0-4.28-4,12.19,12.19,0,0,0-5.93-1.45,11.84,11.84,0,0,0-8.7,3.48,12.39,12.39,0,0,0-.05,17.21A13.05,13.05,0,0,0,541,694.3a7.66,7.66,0,0,0,3.21-5.85H532.86Z" transform="translate(-72.92 -492)"/><path class="cls-1" d="M555.51,668.52h5.11v32.19h-5.11Z" transform="translate(-72.92 -492)"/><path class="cls-1" d="M594.3,700.71,591,692.9H575.1l-3.26,7.81H566.3l13.76-32.19h5.88l13.9,32.19Zm-17.21-12.54H589L583,674Z" transform="translate(-72.92 -492)"/><path class="cls-1" d="M639.11,673.25H622.44v9h11.67V687H622.44v9h16.67v4.73H617.34V668.52h21.77Z" transform="translate(-72.92 -492)"/><path class="cls-1" d="M668.57,668.52h5.1v32.19h-4.13l-18.71-23.2v23.2h-5.11V668.52h4.09l18.76,23.24Z" transform="translate(-72.92 -492)"/><path class="cls-1" d="M721.06,677.94a11.46,11.46,0,0,0-4.28-4,12.08,12.08,0,0,0-5.88-1.45,11.92,11.92,0,0,0-8.75,3.48,12.29,12.29,0,0,0,0,17.21,12.57,12.57,0,0,0,14.58,2,12.08,12.08,0,0,0,4.3-4l4.33,2.51a17.68,17.68,0,0,1-26.79,2.77,16.68,16.68,0,0,1,0-23.91,17.54,17.54,0,0,1,26.79,2.82Z" transform="translate(-72.92 -492)"/><path class="cls-1" d="M755.28,700.71,752,692.9H736.08l-3.26,7.81h-5.54L741,668.52h5.88l13.9,32.19Zm-17.21-12.54H750L744,674Z" transform="translate(-72.92 -492)"/><path class="cls-1" d="M779.48,668.52a11.45,11.45,0,0,1,7.8,2.72,8.68,8.68,0,0,1,3.14,6.84,8.91,8.91,0,0,1-3.09,6.87,11.26,11.26,0,0,1-7.85,2.79H770.3v13h-5.11V668.52Zm0,14.44a6.25,6.25,0,0,0,4.26-1.38,4.58,4.58,0,0,0,0-7,6.26,6.26,0,0,0-4.23-1.38H770.3V683Z" transform="translate(-72.92 -492)"/><path class="cls-1" d="M794.94,668.52H800v32.19h-5.1Z" transform="translate(-72.92 -492)"/><path class="cls-1" d="M831.63,668.52v4.73h-9.91v27.46h-5.1V673.25H806.7v-4.73Z" transform="translate(-72.92 -492)"/><path class="cls-1" d="M858.66,700.71l-3.31-7.81H839.46l-3.26,7.81h-5.54l13.76-32.19h5.88l13.9,32.19Zm-17.21-12.54h11.91l-6-14.21Z" transform="translate(-72.92 -492)"/><path class="cls-1" d="M873.68,696h16.67v4.73H868.58V668.52h5.1Z" transform="translate(-72.92 -492)"/><path class="cls-1" d="M931.52,668.52h5.15v32.19h-5.15V687H913.83v13.73h-5.11V668.52h5.11v13.73h17.69Z" transform="translate(-72.92 -492)"/><path class="cls-1" d="M967.73,668.52h5.1V686.6c0,4.49-1.27,8.08-3.81,10.8a14.69,14.69,0,0,1-20.3,0c-2.56-2.72-3.84-6.31-3.84-10.8V668.52H950V686.6a10.75,10.75,0,0,0,2.43,7.36,8.87,8.87,0,0,0,12.88,0,10.75,10.75,0,0,0,2.43-7.36Z" transform="translate(-72.92 -492)"/><path class="cls-1" d="M1015.55,668.52v32.19h-5.1V675.57l-10.06,25.14H995l-9.86-25v25h-5.11V668.52h7.54l10.15,25.66L1008,668.52Z" transform="translate(-72.92 -492)"/><path class="cls-1" d="M1048.9,700.71l-3.31-7.81H1029.7l-3.26,7.81h-5.54l13.76-32.19h5.88l13.9,32.19Zm-17.21-12.54h11.91l-6-14.21Z" transform="translate(-72.92 -492)"/><path class="cls-1" d="M1081.66,668.52h5.1v32.19h-4.13l-18.71-23.2v23.2h-5.11V668.52h4.09l18.76,23.24Z" transform="translate(-72.92 -492)"/><path class="cls-1" d="M1109.41,701.47a17,17,0,0,1-12.3-4.9,16.68,16.68,0,0,1,0-23.91,17,17,0,0,1,12.3-4.9,16.76,16.76,0,0,1,12.17,4.92,16.65,16.65,0,0,1,0,23.87A16.76,16.76,0,0,1,1109.41,701.47Zm0-4.74a12.1,12.1,0,1,0,0-24.19,11.9,11.9,0,0,0-8.75,3.48,12.29,12.29,0,0,0,0,17.21A11.84,11.84,0,0,0,1109.41,696.73Z" transform="translate(-72.92 -492)"/><path class="cls-1" d="M412.48,635.46h-30l-50-56.21h-.56v56.21h-23.8V507.71h23.8v57.12h.56l50.59-57.12h28.29L355.15,571Z" transform="translate(-72.92 -492)"/><path class="cls-1" d="M463.07,584.36,417,507.71H443.4l31.29,53.84h.37l31.29-53.84h26.42l-46.09,76.65v51.1H463.07Z" transform="translate(-72.92 -492)"/><path class="cls-1" d="M535.21,571.58c0-38.69,27.73-66.06,65.57-66.06s65.58,27.37,65.58,66.06-27.73,66.07-65.58,66.07S535.21,610.28,535.21,571.58Zm106.79,0c0-27.19-17.23-44.71-41.22-44.71-24.17,0-41.22,17.52-41.22,44.71s17.05,44.72,41.22,44.72C624.77,616.3,642,598.78,642,571.58Z" transform="translate(-72.92 -492)"/><path class="cls-1" d="M684,594.58h23.8C708.89,609.36,719,617,733.62,617c14.43,0,23.61-7.49,23.61-18.07,0-8.4-5.62-13.87-23.42-17.52l-12.93-2.74c-24.17-4.93-35.78-16.79-35.78-34.67,0-22.45,18.73-38.51,46.84-38.51,27.91,0,46.09,15.33,47.21,40.15H755.36c-1.69-13.14-10.31-19.53-24-19.53-14.06,0-22.49,6.94-22.49,17,0,8.22,5.44,12.78,23.61,16.61l12.74,2.74c25.29,5.29,35.6,16.61,35.6,34.31,0,24.09-19.3,40.88-48.34,40.88C703.83,637.65,684.35,621.23,684,594.58Z" transform="translate(-72.92 -492)"/><path class="cls-1" d="M887.07,614.11v21.35H796.39V617.57l59.77-88.51H797.89V507.71h87.68v17.88L825.8,614.11Z" transform="translate(-72.92 -492)"/><path class="cls-1" d="M934.85,528.88V561h51.9v20.62h-51.9v32.67h57.52v21.17H911.05V507.71h81.32v21.17Z" transform="translate(-72.92 -492)"/><path class="cls-1" d="M1127.08,507.71V635.46h-24.35L1043.33,547h-.56v88.51H1019V507.71h24.36l59.4,88.51h.56V507.71Z" transform="translate(-72.92 -492)"/><path class="cls-2" d="M170.28,625.73c22.06-21,43.87-42.14,65.86-63.15,5.41-5.16,9.84-11.11,10.08-18.39.56-16.91.18-33.85.18-52.19L73.34,658.56c4,0,6.34,0,8.72,0l49.26-.11c2.65,0,5.09,0,7.25,2.16,10.78,10.62,22,20.85,32.51,31.7,10.37,10.68,21.7,17.84,37.78,16.34,10.44-1,21.06-.13,31.6-.24,1.38,0,3.23.91,4.33-1.18-.64-.74-1.24-1.53-1.94-2.21-24.22-23.31-48.29-46.78-72.83-69.77C165.5,631,166.6,629.23,170.28,625.73Z" transform="translate(-72.92 -492)"/><path class="cls-2" d="M81.69,616.41c11.88-9.86,22.32-21.13,33.54-31.64,1.75-1.64,3.47-3.2,3.45-5.94-.08-13,0-26,0-40.18-14,13.46-27.19,25.94-40.11,38.67a18.28,18.28,0,0,0-5.43,12.32c-.35,11.53-.11,23.07-.11,35.17C77,622.58,78.74,618.86,81.69,616.41Z" transform="translate(-72.92 -492)"/></svg>