<svg id="Capa_1" data-name="Capa 1" xmlns="http://www.w3.org/2000/svg" viewBox="0 0 189.01 228.39"><path d="M191.22,200.71V102.27s11.1,18.49,51.22,19.63a3.84,3.84,0,0,0,3.91-3.84V90.24a3.88,3.88,0,0,0-3.73-3.83c-31.12-1.76-45.9-25.63-47.35-47.52a3.9,3.9,0,0,0-3.94-3.57H159.61a3.83,3.83,0,0,0-3.83,3.83v156.5c0,17-13,31.78-30,32.59a31.51,31.51,0,0,1-6.06-62.65,32.09,32.09,0,0,1,8.06-.12,3.85,3.85,0,0,0,4.34-3.78v-27.9a3.8,3.8,0,0,0-3.49-3.82,68.52,68.52,0,0,0-12.2.3,66.95,66.95,0,1,0,74.76,66.5" transform="translate(-57.33 -35.32)"/></svg>