<svg id="Capa_1" data-name="Capa 1" xmlns="http://www.w3.org/2000/svg" viewBox="0 0 300 300"><defs><style>.cls-1{fill:#071f68;}.cls-2{fill:#fff;}</style></defs><rect class="cls-1" width="300" height="300" rx="53.56"/><path class="cls-2" d="M161.88,178.2c24.6-23.37,48.93-47,73.47-70.46,6-5.76,11-12.39,11.24-20.51.63-18.87.2-37.77.2-58.23L53.72,214.83h9.74l55-.13c3,0,5.68.05,8.08,2.41,12,11.85,24.52,23.27,36.27,35.37,11.57,11.92,24.21,19.9,42.15,18.23,11.66-1.08,23.5-.15,35.26-.27,1.54,0,3.6,1,4.83-1.32-.72-.82-1.38-1.7-2.17-2.46-27-26-53.87-52.19-81.24-77.84C156.54,184.09,157.77,182.1,161.88,178.2Z"/><path class="cls-2" d="M63,167.8c13.25-11,24.9-23.57,37.41-35.3,2-1.83,3.88-3.57,3.86-6.63-.09-14.49,0-29,0-44.82-15.63,15-30.33,28.94-44.75,43.14a20.34,20.34,0,0,0-6.05,13.75c-.39,12.86-.13,25.73-.13,39.23C57.76,174.68,59.75,170.53,63,167.8Z"/></svg>